<svg xmlns="http://www.w3.org/2000/svg" width="960" height="420" viewBox="0 0 960 420" role="img" aria-labelledby="title desc">
  <title id="title">DONE todo list logo</title>
  <desc id="desc">A rounded task card with a checked item beside the DONE wordmark.</desc>
  <defs>
    <linearGradient id="card-gradient" x1="150" y1="78" x2="392" y2="324" gradientUnits="userSpaceOnUse">
      <stop offset="0" stop-color="#ffffff"/>
      <stop offset="1" stop-color="#f4f4f4"/>
    </linearGradient>
    <filter id="soft-shadow" x="-20%" y="-20%" width="140%" height="150%">
      <feDropShadow dx="0" dy="18" stdDeviation="18" flood-color="#000000" flood-opacity="0.14"/>
    </filter>
    <mask id="mask-d-stem" maskUnits="userSpaceOnUse" x="430" y="135" width="340" height="125">
      <path id="reveal-d-stem" class="word-reveal" d="M 481.62,236.75 L 481.62,234.51 L 481.62,232.28 L 481.62,230.04 L 481.62,227.81 L 481.62,225.57 L 481.62,223.34 L 481.62,221.1 L 481.62,218.86 L 481.62,216.63 L 481.62,214.39 L 481.62,212.16 L 481.62,209.92 L 481.62,207.69 L 481.62,205.45 L 481.62,203.21 L 481.62,200.98 L 481.62,198.74 L 481.62,196.51 L 481.62,194.27 L 481.62,192.04 L 481.62,189.8 L 481.62,187.56 L 481.62,185.33 L 481.62,183.09 L 481.62,180.86 L 481.62,178.62 L 481.62,176.39 L 481.62,174.15 L 481.62,171.91 L 481.62,169.68 L 481.62,167.44 L 481.62,165.21 L 481.62,162.97 L 481.62,160.74 L 481.62,158.5" fill="none" stroke="#ffffff" stroke-width="40.48" stroke-linecap="butt" stroke-linejoin="round" pathLength="1"/>
    </mask>
    <mask id="mask-d-bowl" maskUnits="userSpaceOnUse" x="430" y="135" width="340" height="125">
      <path id="reveal-d-bowl" class="word-reveal" d="M 481.62,163.5 L 483.04,164.19 L 484.44,164.88 L 485.81,165.57 L 487.15,166.26 L 488.46,166.95 L 489.74,167.64 L 491,168.33 L 492.22,169.02 L 493.41,169.7 L 494.58,170.39 L 495.72,171.08 L 496.82,171.77 L 497.9,172.46 L 498.95,173.15 L 499.97,173.84 L 500.96,174.53 L 501.92,175.22 L 502.85,175.91 L 503.76,176.6 L 504.63,177.29 L 505.48,177.98 L 506.29,178.67 L 507.08,179.36 L 507.84,180.05 L 508.56,180.73 L 509.26,181.42 L 509.93,182.11 L 510.57,182.8 L 511.19,183.49 L 511.77,184.18 L 512.32,184.87 L 512.85,185.56 L 513.34,186.25 L 513.81,186.94 L 514.24,187.63 L 514.65,188.32 L 515.03,189 L 515.38,189.7 L 515.7,190.39 L 516,191.08 L 516.26,191.77 L 516.49,192.45 L 516.69,193.14 L 516.87,193.83 L 517.01,194.52 L 517.13,195.21 L 517.22,195.9 L 517.27,196.59 L 517.3,197.28 L 517.3,197.97 L 517.27,198.66 L 517.22,199.35 L 517.13,200.04 L 517.01,200.73 L 516.87,201.42 L 516.69,202.11 L 516.49,202.8 L 516.26,203.48 L 516,204.17 L 515.7,204.86 L 515.38,205.55 L 515.03,206.24 L 514.65,206.93 L 514.24,207.62 L 513.81,208.31 L 513.34,209 L 512.85,209.69 L 512.32,210.38 L 511.77,211.07 L 511.19,211.76 L 510.57,212.45 L 509.93,213.14 L 509.26,213.83 L 508.56,214.52 L 507.84,215.2 L 507.08,215.89 L 506.29,216.58 L 505.48,217.27 L 504.63,217.96 L 503.76,218.65 L 502.85,219.34 L 501.92,220.03 L 500.96,220.72 L 499.97,221.41 L 498.95,222.1 L 497.9,222.79 L 496.82,223.48 L 495.72,224.17 L 494.58,224.86 L 493.41,225.55 L 492.22,226.23 L 491,226.92 L 489.74,227.61 L 488.46,228.3 L 487.15,229 L 485.81,229.68 L 484.44,230.37 L 483.04,231.06 L 481.62,231.75" fill="none" stroke="#ffffff" stroke-width="41.96" stroke-linecap="butt" stroke-linejoin="round" pathLength="1"/>
    </mask>
    <mask id="mask-o-loop" maskUnits="userSpaceOnUse" x="430" y="135" width="340" height="125">
      <path id="reveal-o-loop" class="word-reveal" d="M 570.12,175.14 L 570.97,175.16 L 571.81,175.21 L 572.65,175.3 L 573.49,175.42 L 574.32,175.58 L 575.14,175.77 L 575.96,176 L 576.77,176.26 L 577.57,176.55 L 578.35,176.88 L 579.12,177.24 L 579.88,177.63 L 580.63,178.06 L 581.35,178.51 L 582.06,179 L 582.75,179.51 L 583.42,180.05 L 584.07,180.62 L 584.7,181.22 L 585.31,181.84 L 585.89,182.49 L 586.45,183.16 L 586.98,183.85 L 587.49,184.57 L 587.96,185.3 L 588.42,186.06 L 588.84,186.83 L 589.23,187.62 L 589.59,188.43 L 589.93,189.25 L 590.23,190.09 L 590.5,190.93 L 590.74,191.79 L 590.94,192.66 L 591.12,193.53 L 591.26,194.41 L 591.37,195.3 L 591.44,196.19 L 591.48,197.08 L 591.49,197.97 L 591.47,198.87 L 591.41,199.76 L 591.32,200.65 L 591.19,201.53 L 591.03,202.41 L 590.84,203.28 L 590.62,204.14 L 590.37,205 L 590.08,205.83 L 589.76,206.66 L 589.42,207.47 L 589.04,208.27 L 588.63,209.06 L 588.19,209.82 L 587.73,210.57 L 587.24,211.29 L 586.72,212 L 586.17,212.68 L 585.6,213.34 L 585,213.97 L 584.39,214.58 L 583.75,215.17 L 583.09,215.72 L 582.41,216.25 L 581.71,216.75 L 581,217.22 L 580.26,217.66 L 579.5,218.07 L 578.74,218.44 L 577.96,218.79 L 577.17,219.1 L 576.37,219.37 L 575.55,219.62 L 574.73,219.83 L 573.9,220 L 573.07,220.14 L 572.23,220.25 L 571.39,220.32 L 570.55,220.36 L 569.7,220.36 L 568.86,220.32 L 568.02,220.25 L 567.18,220.14 L 566.35,220 L 565.52,219.83 L 564.7,219.62 L 563.88,219.37 L 563.08,219.1 L 562.29,218.79 L 561.51,218.44 L 560.75,218.07 L 560,217.66 L 559.26,217.22 L 558.54,216.75 L 557.84,216.25 L 557.16,215.72 L 556.5,215.17 L 555.86,214.58 L 555.24,213.97 L 554.65,213.34 L 554.08,212.68 L 553.53,212 L 553.01,211.29 L 552.52,210.57 L 552.06,209.82 L 551.62,209.05 L 551.21,208.27 L 550.83,207.47 L 550.49,206.66 L 550.17,205.83 L 549.88,205 L 549.63,204.14 L 549.41,203.28 L 549.22,202.41 L 549.06,201.53 L 548.93,200.65 L 548.84,199.76 L 548.78,198.87 L 548.76,197.97 L 548.77,197.08 L 548.81,196.19 L 548.88,195.3 L 549,194.41 L 549.13,193.53 L 549.31,192.66 L 549.51,191.79 L 549.75,190.93 L 550.02,190.09 L 550.32,189.25 L 550.66,188.43 L 551.02,187.62 L 551.41,186.83 L 551.83,186.06 L 552.29,185.3 L 552.76,184.57 L 553.27,183.85 L 553.8,183.16 L 554.36,182.49 L 554.94,181.84 L 555.55,181.22 L 556.18,180.62 L 556.83,180.05 L 557.5,179.51 L 558.19,179 L 558.9,178.51 L 559.62,178.06 L 560.37,177.63 L 561.13,177.24 L 561.9,176.88 L 562.68,176.55 L 563.48,176.26 L 564.29,176 L 565.11,175.77 L 565.93,175.58 L 566.76,175.42 L 567.6,175.3 L 568.44,175.21 L 569.28,175.16 L 570.12,175.14" fill="none" stroke="#ffffff" stroke-width="37.88" stroke-linecap="butt" stroke-linejoin="round" pathLength="1"/>
    </mask>
    <mask id="mask-n-left" maskUnits="userSpaceOnUse" x="430" y="135" width="340" height="125">
      <path id="reveal-n-left" class="word-reveal" d="M 629.41,236.75 L 629.41,234.23 L 629.41,231.7 L 629.41,229.18 L 629.41,226.65 L 629.41,224.13 L 629.41,221.6 L 629.41,219.08 L 629.41,216.56 L 629.41,214.03 L 629.41,211.51 L 629.41,208.98 L 629.41,206.46 L 629.41,203.94 L 629.41,201.41 L 629.41,198.89 L 629.41,196.36 L 629.41,193.84 L 629.41,191.31 L 629.41,188.79 L 629.41,186.27 L 629.41,183.74 L 629.41,181.22 L 629.41,178.69 L 629.41,176.17 L 629.41,173.65 L 629.41,171.12 L 629.41,168.6 L 629.41,166.07 L 629.41,163.55 L 629.41,161.02 L 629.41,158.5" fill="none" stroke="#ffffff" stroke-width="36.07" stroke-linecap="butt" stroke-linejoin="round" pathLength="1"/>
    </mask>
    <mask id="mask-n-diagonal" maskUnits="userSpaceOnUse" x="430" y="135" width="340" height="125">
      <path id="reveal-n-diagonal" class="word-reveal" d="M 629.41,161.5 L 630.13,162.81 L 630.85,164.13 L 631.57,165.44 L 632.3,166.75 L 633.02,168.07 L 633.74,169.38 L 634.46,170.7 L 635.18,172 L 635.9,173.32 L 636.62,174.64 L 637.35,175.95 L 638.07,177.26 L 638.79,178.58 L 639.51,179.89 L 640.23,181.2 L 640.95,182.52 L 641.67,183.83 L 642.4,185.15 L 643.12,186.46 L 643.84,187.77 L 644.56,189.09 L 645.28,190.4 L 646,191.71 L 646.72,193.03 L 647.45,194.34 L 648.17,195.65 L 648.89,196.97 L 649.61,198.28 L 650.33,199.6 L 651.05,200.91 L 651.78,202.22 L 652.5,203.54 L 653.22,204.85 L 653.94,206.16 L 654.66,207.48 L 655.38,208.79 L 656.1,210.1 L 656.83,211.42 L 657.55,212.73 L 658.27,214.05 L 658.99,215.36 L 659.71,216.67 L 660.43,217.99 L 661.15,219.3 L 661.88,220.61 L 662.6,221.93 L 663.32,223.24 L 664.04,224.55 L 664.76,225.87 L 665.48,227.18 L 666.2,228.5 L 666.93,229.81 L 667.65,231.12 L 668.37,232.44 L 669.09,233.75" fill="none" stroke="#ffffff" stroke-width="33.15" stroke-linecap="butt" stroke-linejoin="round" pathLength="1"/>
    </mask>
    <mask id="mask-n-right" maskUnits="userSpaceOnUse" x="430" y="135" width="340" height="125">
      <path id="reveal-n-right" class="word-reveal" d="M 669.09,236.75 L 669.09,234.23 L 669.09,231.7 L 669.09,229.18 L 669.09,226.65 L 669.09,224.13 L 669.09,221.6 L 669.09,219.08 L 669.09,216.56 L 669.09,214.03 L 669.09,211.51 L 669.09,208.98 L 669.09,206.46 L 669.09,203.94 L 669.09,201.41 L 669.09,198.89 L 669.09,196.36 L 669.09,193.84 L 669.09,191.31 L 669.09,188.79 L 669.09,186.27 L 669.09,183.74 L 669.09,181.22 L 669.09,178.69 L 669.09,176.17 L 669.09,173.65 L 669.09,171.12 L 669.09,168.6 L 669.09,166.07 L 669.09,163.55 L 669.09,161.02 L 669.09,158.5" fill="none" stroke="#ffffff" stroke-width="36.57" stroke-linecap="butt" stroke-linejoin="round" pathLength="1"/>
    </mask>
    <mask id="mask-e-stem" maskUnits="userSpaceOnUse" x="430" y="135" width="340" height="125">
      <path id="reveal-e-stem" class="word-reveal" d="M 703.72,236.75 L 703.72,234.23 L 703.72,231.7 L 703.72,229.18 L 703.72,226.65 L 703.72,224.13 L 703.72,221.6 L 703.72,219.08 L 703.72,216.56 L 703.72,214.03 L 703.72,211.51 L 703.72,208.98 L 703.72,206.46 L 703.72,203.94 L 703.72,201.41 L 703.72,198.89 L 703.72,196.36 L 703.72,193.84 L 703.72,191.31 L 703.72,188.79 L 703.72,186.27 L 703.72,183.74 L 703.72,181.22 L 703.72,178.69 L 703.72,176.17 L 703.72,173.65 L 703.72,171.12 L 703.72,168.6 L 703.72,166.07 L 703.72,163.55 L 703.72,161.02 L 703.72,158.5" fill="none" stroke="#ffffff" stroke-width="37.81" stroke-linecap="butt" stroke-linejoin="round" pathLength="1"/>
    </mask>
    <mask id="mask-e-top" maskUnits="userSpaceOnUse" x="430" y="135" width="340" height="125">
      <path id="reveal-e-top" class="word-reveal" d="M 699.72,170.64 L 700.79,170.64 L 701.86,170.64 L 702.93,170.64 L 704,170.64 L 705.07,170.64 L 706.14,170.64 L 707.21,170.64 L 708.28,170.64 L 709.35,170.64 L 710.42,170.64 L 711.5,170.64 L 712.57,170.64 L 713.64,170.64 L 714.71,170.64 L 715.78,170.64 L 716.85,170.64 L 717.92,170.64 L 718.99,170.64 L 720.06,170.64 L 721.13,170.64 L 722.2,170.64 L 723.27,170.64 L 724.34,170.64 L 725.41,170.64 L 726.48,170.64 L 727.55,170.64 L 728.62,170.64 L 729.69,170.64 L 730.76,170.64 L 731.83,170.64 L 732.9,170.64 L 733.97,170.64 L 735.05,170.64 L 736.12,170.64 L 737.19,170.64 L 738.26,170.64 L 739.33,170.64 L 740.4,170.64 L 741.47,170.64 L 742.54,170.64 L 743.61,170.64 L 744.68,170.64 L 745.75,170.64" fill="none" stroke="#ffffff" stroke-width="37.97" stroke-linecap="butt" stroke-linejoin="round" pathLength="1"/>
    </mask>
    <mask id="mask-e-mid" maskUnits="userSpaceOnUse" x="430" y="135" width="340" height="125">
      <path id="reveal-e-mid" class="word-reveal" d="M 699.72,196.98 L 700.86,196.98 L 702,196.98 L 703.15,196.98 L 704.29,196.98 L 705.44,196.98 L 706.58,196.98 L 707.73,196.98 L 708.87,196.98 L 710.01,196.98 L 711.16,196.98 L 712.3,196.98 L 713.44,196.98 L 714.59,196.98 L 715.73,196.98 L 716.88,196.98 L 718.02,196.98 L 719.16,196.98 L 720.31,196.98 L 721.45,196.98 L 722.59,196.98 L 723.74,196.98 L 724.88,196.98 L 726.03,196.98 L 727.17,196.98 L 728.31,196.98 L 729.46,196.98 L 730.6,196.98 L 731.74,196.98 L 732.89,196.98 L 734.03,196.98 L 735.18,196.98 L 736.32,196.98 L 737.46,196.98 L 738.61,196.98 L 739.75,196.98" fill="none" stroke="#ffffff" stroke-width="38.29" stroke-linecap="butt" stroke-linejoin="round" pathLength="1"/>
    </mask>
    <mask id="mask-e-bottom" maskUnits="userSpaceOnUse" x="430" y="135" width="340" height="125">
      <path id="reveal-e-bottom" class="word-reveal" d="M 699.72,224.61 L 700.79,224.61 L 701.86,224.61 L 702.93,224.61 L 704,224.61 L 705.07,224.61 L 706.14,224.61 L 707.21,224.61 L 708.28,224.61 L 709.35,224.61 L 710.42,224.61 L 711.5,224.61 L 712.57,224.61 L 713.64,224.61 L 714.71,224.61 L 715.78,224.61 L 716.85,224.61 L 717.92,224.61 L 718.99,224.61 L 720.06,224.61 L 721.13,224.61 L 722.2,224.61 L 723.27,224.61 L 724.34,224.61 L 725.41,224.61 L 726.48,224.61 L 727.55,224.61 L 728.62,224.61 L 729.69,224.61 L 730.76,224.61 L 731.83,224.61 L 732.9,224.61 L 733.97,224.61 L 735.05,224.61 L 736.12,224.61 L 737.19,224.61 L 738.26,224.61 L 739.33,224.61 L 740.4,224.61 L 741.47,224.61 L 742.54,224.61 L 743.61,224.61 L 744.68,224.61 L 745.75,224.61" fill="none" stroke="#ffffff" stroke-width="37.97" stroke-linecap="butt" stroke-linejoin="round" pathLength="1"/>
    </mask>
  </defs>

  <g id="mark" filter="url(#soft-shadow)">
    <rect id="card" x="130" y="74" width="272" height="272" rx="52" fill="url(#card-gradient)" stroke="#111111" stroke-opacity="0.16" stroke-width="4"/>
    <g id="task-row-1">
      <circle id="task-dot-1" cx="188" cy="158" r="13" fill="#111111"/>
      <path id="task-line-1" d="M 222 158 L 336 158" fill="none" stroke="#111111" stroke-width="16" stroke-linecap="round" pathLength="1"/>
    </g>
    <g id="task-row-2">
      <circle id="task-dot-2" cx="188" cy="218" r="13" fill="#666666"/>
      <path id="task-line-2" d="M 222 218 L 320 218" fill="none" stroke="#666666" stroke-width="16" stroke-linecap="round" pathLength="1"/>
    </g>
    <g id="task-row-3">
      <circle id="task-dot-3" cx="188" cy="278" r="13" fill="#111111"/>
      <path id="task-line-3" d="M 222 278 L 352 278" fill="none" stroke="#111111" stroke-width="16" stroke-linecap="round" pathLength="1"/>
    </g>

    <circle id="check-circle" cx="340" cy="270" r="54" fill="#ffffff" stroke="#111111" stroke-width="5"/>
    <path id="check-stroke" d="M 312 270 L 332 290 L 371 245" fill="none" stroke="#16b889" stroke-width="17" stroke-linecap="round" stroke-linejoin="round" pathLength="1"/>
  </g>

  <g id="wordmark">
      <path id="word-d-stem" class="word-ribbon" d="M 529.07 196.98 Q 529.07 206.78 524.96 214.3 Q 520.85 221.82 513.21 225.91 Q 505.57 230 495.6 230 L 468.33 230 L 468.33 165.58 L 495.02 165.58 Q 529.07 165.58 529.07 196.98 Z M 508.45 197.16 Q 508.45 192.45 506.54 188.67 Q 504.63 184.9 501.08 182.83 Q 497.53 180.77 492.73 180.77 L 487.74 180.77 L 487.74 214.82 L 493.18 214.82 Q 500.14 214.82 504.29 210.03 Q 508.45 205.25 508.45 197.16 Z" fill="#111111" fill-rule="evenodd" mask="url(#mask-d-stem)"/>
      <path id="word-d-bowl" class="word-ribbon" d="M 529.07 196.98 Q 529.07 206.78 524.96 214.3 Q 520.85 221.82 513.21 225.91 Q 505.57 230 495.6 230 L 468.33 230 L 468.33 165.58 L 495.02 165.58 Q 529.07 165.58 529.07 196.98 Z M 508.45 197.16 Q 508.45 192.45 506.54 188.67 Q 504.63 184.9 501.08 182.83 Q 497.53 180.77 492.73 180.77 L 487.74 180.77 L 487.74 214.82 L 493.18 214.82 Q 500.14 214.82 504.29 210.03 Q 508.45 205.25 508.45 197.16 Z" fill="#111111" fill-rule="evenodd" mask="url(#mask-d-bowl)"/>
      <path id="word-o-loop" class="word-ribbon" d="M 602.61 197.61 Q 602.61 207.31 598.43 214.97 Q 594.25 222.63 586.75 226.88 Q 579.25 231.12 569.95 231.12 Q 560.88 231.12 553.44 227.01 Q 546 222.9 541.87 215.47 Q 537.74 208.03 537.74 198.64 Q 537.74 188.81 541.92 180.95 Q 546.1 173.08 553.64 168.79 Q 561.19 164.5 570.8 164.5 Q 580.06 164.5 587.36 168.61 Q 594.66 172.72 598.63 180.34 Q 602.61 187.95 602.61 197.61 Z M 582.03 198.15 Q 582.03 190.2 578.98 185.62 Q 575.92 181.04 570.62 181.04 Q 564.83 181.04 561.59 185.44 Q 558.36 189.84 558.36 197.88 Q 558.36 205.74 561.57 210.14 Q 564.78 214.55 570.31 214.55 Q 573.68 214.55 576.37 212.57 Q 579.07 210.59 580.55 206.91 Q 582.03 203.23 582.03 198.15 Z" fill="#111111" fill-rule="evenodd" mask="url(#mask-o-loop)"/>
      <path id="word-n-left" class="word-ribbon" d="M 663.35 230 L 640.62 198.91 Q 637.92 195.23 636.21 192.27 L 636.03 192.27 Q 636.3 197.03 636.3 202.96 L 636.3 230 L 618.33 230 L 618.33 165.58 L 636.66 165.58 L 658.45 195.14 Q 658.85 195.72 659.44 196.53 Q 660.02 197.34 660.61 198.2 Q 661.19 199.05 661.71 199.86 Q 662.22 200.67 662.49 201.29 L 662.67 201.29 Q 662.4 199.32 662.4 194.47 L 662.4 165.58 L 680.37 165.58 L 680.37 230 Z" fill="#111111" fill-rule="evenodd" mask="url(#mask-n-left)"/>
      <path id="word-n-diagonal" class="word-ribbon" d="M 663.35 230 L 640.62 198.91 Q 637.92 195.23 636.21 192.27 L 636.03 192.27 Q 636.3 197.03 636.3 202.96 L 636.3 230 L 618.33 230 L 618.33 165.58 L 636.66 165.58 L 658.45 195.14 Q 658.85 195.72 659.44 196.53 Q 660.02 197.34 660.61 198.2 Q 661.19 199.05 661.71 199.86 Q 662.22 200.67 662.49 201.29 L 662.67 201.29 Q 662.4 199.32 662.4 194.47 L 662.4 165.58 L 680.37 165.58 L 680.37 230 Z" fill="#111111" fill-rule="evenodd" mask="url(#mask-n-diagonal)"/>
      <path id="word-n-right" class="word-ribbon" d="M 663.35 230 L 640.62 198.91 Q 637.92 195.23 636.21 192.27 L 636.03 192.27 Q 636.3 197.03 636.3 202.96 L 636.3 230 L 618.33 230 L 618.33 165.58 L 636.66 165.58 L 658.45 195.14 Q 658.85 195.72 659.44 196.53 Q 660.02 197.34 660.61 198.2 Q 661.19 199.05 661.71 199.86 Q 662.22 200.67 662.49 201.29 L 662.67 201.29 Q 662.4 199.32 662.4 194.47 L 662.4 165.58 L 680.37 165.58 L 680.37 230 Z" fill="#111111" fill-rule="evenodd" mask="url(#mask-n-right)"/>
      <path id="word-e-stem" class="word-ribbon" d="M 696.33 230 L 696.33 165.58 L 736.45 165.58 L 736.45 180.77 L 715.74 180.77 L 715.74 190.15 L 735.19 190.15 L 735.19 205.34 L 715.74 205.34 L 715.74 214.82 L 737.93 214.82 L 737.93 230 Z" fill="#111111" fill-rule="evenodd" mask="url(#mask-e-stem)"/>
      <path id="word-e-top" class="word-ribbon" d="M 696.33 230 L 696.33 165.58 L 736.45 165.58 L 736.45 180.77 L 715.74 180.77 L 715.74 190.15 L 735.19 190.15 L 735.19 205.34 L 715.74 205.34 L 715.74 214.82 L 737.93 214.82 L 737.93 230 Z" fill="#111111" fill-rule="evenodd" mask="url(#mask-e-top)"/>
      <path id="word-e-mid" class="word-ribbon" d="M 696.33 230 L 696.33 165.58 L 736.45 165.58 L 736.45 180.77 L 715.74 180.77 L 715.74 190.15 L 735.19 190.15 L 735.19 205.34 L 715.74 205.34 L 715.74 214.82 L 737.93 214.82 L 737.93 230 Z" fill="#111111" fill-rule="evenodd" mask="url(#mask-e-mid)"/>
      <path id="word-e-bottom" class="word-ribbon" d="M 696.33 230 L 696.33 165.58 L 736.45 165.58 L 736.45 180.77 L 715.74 180.77 L 715.74 190.15 L 735.19 190.15 L 735.19 205.34 L 715.74 205.34 L 715.74 214.82 L 737.93 214.82 L 737.93 230 Z" fill="#111111" fill-rule="evenodd" mask="url(#mask-e-bottom)"/>
  </g>
</svg>
